<?xml version="1.0" encoding="UTF-8"?>
<!DOCTYPE svg PUBLIC "-//W3C//DTD SVG 1.1//EN" "http://www.w3.org/Graphics/SVG/1.1/DTD/svg11.dtd">
<svg xmlns="http://www.w3.org/2000/svg" version="1.1" width="96px" height="96px" style="shape-rendering:geometricPrecision; text-rendering:geometricPrecision; image-rendering:optimizeQuality; fill-rule:evenodd; clip-rule:evenodd" xmlns:xlink="http://www.w3.org/1999/xlink">
<g><path style="opacity:0.986" fill="#d2d4e4" d="M 23.5,0.5 C 24.5,0.5 25.5,0.5 26.5,0.5C 26.6697,5.85908 27.1697,11.1924 28,16.5C 28.9108,20.2299 30.4108,23.5632 32.5,26.5C 29.8719,29.9728 30.8719,32.3061 35.5,33.5C 36.4565,35.0754 37.1231,36.742 37.5,38.5C 39.5912,41.7705 41.9245,44.9372 44.5,48C 54.6751,48.1698 64.6751,48.6698 74.5,49.5C 30.5,50.1667 30.5,50.8333 74.5,51.5C 66.3434,52.3294 58.0101,52.8294 49.5,53C 56.8456,54.1325 64.1789,54.9658 71.5,55.5C 23.5,56.1667 23.5,56.8333 71.5,57.5C 67.0181,58.3255 62.3514,58.8255 57.5,59C 59.5,60.3333 61.5,61.6667 63.5,63C 67.3563,63.1773 71.023,63.6773 74.5,64.5C 30.5,65.1667 30.5,65.8333 74.5,66.5C 75.784,68.6138 77.784,69.6138 80.5,69.5C 80.8158,77.7524 80.4825,85.919 79.5,94C 58.1667,94.6667 36.8333,94.6667 15.5,94C 14.5049,65.9073 14.1715,37.7406 14.5,9.5C 17.5,9.5 20.5,9.5 23.5,9.5C 23.5,6.5 23.5,3.5 23.5,0.5 Z"/></g>
<g><path style="opacity:1" fill="#edf1f9" d="M 26.5,0.5 C 44.4101,0.174413 62.2434,0.507747 80,1.5C 80.5,24.1642 80.6666,46.8309 80.5,69.5C 77.784,69.6138 75.784,68.6138 74.5,66.5C 74.5,65.8333 74.5,65.1667 74.5,64.5C 71.023,63.6773 67.3563,63.1773 63.5,63C 61.5,61.6667 59.5,60.3333 57.5,59C 62.3514,58.8255 67.0181,58.3255 71.5,57.5C 71.5,56.8333 71.5,56.1667 71.5,55.5C 64.1789,54.9658 56.8456,54.1325 49.5,53C 58.0101,52.8294 66.3434,52.3294 74.5,51.5C 74.5,50.8333 74.5,50.1667 74.5,49.5C 64.6751,48.6698 54.6751,48.1698 44.5,48C 41.9245,44.9372 39.5912,41.7705 37.5,38.5C 39.3718,40.6037 41.7052,41.937 44.5,42.5C 45.9989,43.494 47.6656,43.494 49.5,42.5C 55.1667,41.5 58.5,38.1667 59.5,32.5C 64.2935,32.0886 65.2935,30.0886 62.5,26.5C 63.5671,15.2387 58.5671,8.57204 47.5,6.5C 46.2739,6.51954 45.2739,6.85287 44.5,7.5C 35.2348,10.3397 31.2348,16.673 32.5,26.5C 30.4108,23.5632 28.9108,20.2299 28,16.5C 27.1697,11.1924 26.6697,5.85908 26.5,0.5 Z"/></g>
<g><path style="opacity:1" fill="#a8acc1" d="M 23.5,0.5 C 23.5,3.5 23.5,6.5 23.5,9.5C 20.5,9.5 17.5,9.5 14.5,9.5C 17.1667,6.16667 20.1667,3.16667 23.5,0.5 Z"/></g>
<g><path style="opacity:1" fill="#30353b" d="M 44.5,7.5 C 51.6666,7.50646 56.4999,10.8398 59,17.5C 59.4974,20.146 59.6641,22.8127 59.5,25.5C 58.0652,24.0867 57.0652,22.42 56.5,20.5C 56.5654,20.0618 56.3988,19.7284 56,19.5C 52.3019,23.1852 47.8019,25.3519 42.5,26C 41.7734,27.3988 41.2734,28.8988 41,30.5C 40.5172,29.552 40.3505,28.552 40.5,27.5C 38.0521,26.5269 35.3854,26.1936 32.5,26.5C 31.2348,16.673 35.2348,10.3397 44.5,7.5 Z"/></g>
<g><path style="opacity:1" fill="#474f57" d="M 44.5,7.5 C 45.2739,6.85287 46.2739,6.51954 47.5,6.5C 58.5671,8.57204 63.5671,15.2387 62.5,26.5C 61.209,26.7373 60.209,26.404 59.5,25.5C 59.6641,22.8127 59.4974,20.146 59,17.5C 56.4999,10.8398 51.6666,7.50646 44.5,7.5 Z"/></g>
<g><path style="opacity:1" fill="#f8b49f" d="M 56.5,20.5 C 57.0614,26.7316 56.228,32.7316 54,38.5C 52.6032,40.0703 51.1032,41.4036 49.5,42.5C 47.6656,43.494 45.9989,43.494 44.5,42.5C 44.9382,42.5654 45.2716,42.3988 45.5,42C 39.4674,38.4009 37.8007,33.5675 40.5,27.5C 40.3505,28.552 40.5172,29.552 41,30.5C 41.2734,28.8988 41.7734,27.3988 42.5,26C 47.8019,25.3519 52.3019,23.1852 56,19.5C 56.3988,19.7284 56.5654,20.0618 56.5,20.5 Z"/></g>
<g><path style="opacity:1" fill="#fbd2c6" d="M 56.5,20.5 C 57.0652,22.42 58.0652,24.0867 59.5,25.5C 60.209,26.404 61.209,26.7373 62.5,26.5C 65.2935,30.0886 64.2935,32.0886 59.5,32.5C 58.5,38.1667 55.1667,41.5 49.5,42.5C 51.1032,41.4036 52.6032,40.0703 54,38.5C 56.228,32.7316 57.0614,26.7316 56.5,20.5 Z"/></g>
<g><path style="opacity:1" fill="#fda48c" d="M 32.5,26.5 C 35.3854,26.1936 38.0521,26.5269 40.5,27.5C 37.8007,33.5675 39.4674,38.4009 45.5,42C 45.2716,42.3988 44.9382,42.5654 44.5,42.5C 41.7052,41.937 39.3718,40.6037 37.5,38.5C 37.1231,36.742 36.4565,35.0754 35.5,33.5C 30.8719,32.3061 29.8719,29.9728 32.5,26.5 Z"/></g>
<g><path style="opacity:1" fill="#5e4a9e" d="M 35.5,49.5 C 36.675,49.281 37.675,49.6143 38.5,50.5C 36.9483,51.7979 35.9483,51.4646 35.5,49.5 Z"/></g>
<g><path style="opacity:1" fill="#5e4a9e" d="M 74.5,49.5 C 74.5,50.1667 74.5,50.8333 74.5,51.5C 30.5,50.8333 30.5,50.1667 74.5,49.5 Z"/></g>
<g><path style="opacity:1" fill="#5e4a9e" d="M 71.5,55.5 C 71.5,56.1667 71.5,56.8333 71.5,57.5C 23.5,56.8333 23.5,56.1667 71.5,55.5 Z"/></g>
<g><path style="opacity:1" fill="#6c57ad" d="M 20.5,47.5 C 24.5,47.5 28.5,47.5 32.5,47.5C 32.5,51.5 32.5,55.5 32.5,59.5C 28.8183,59.6653 25.1516,59.4986 21.5,59C 20.5399,55.27 20.2065,51.4367 20.5,47.5 Z"/></g>
<g><path style="opacity:1" fill="#9c86df" d="M 22.5,49.5 C 25.1667,49.5 27.8333,49.5 30.5,49.5C 30.5,52.1667 30.5,54.8333 30.5,57.5C 26.2029,56.5363 23.5362,53.8696 22.5,49.5 Z"/></g>
<g><path style="opacity:1" fill="#5e4a9e" d="M 35.5,64.5 C 36.675,64.281 37.675,64.6143 38.5,65.5C 36.9483,66.7979 35.9483,66.4646 35.5,64.5 Z"/></g>
<g><path style="opacity:1" fill="#5e4a9e" d="M 74.5,64.5 C 74.5,65.1667 74.5,65.8333 74.5,66.5C 30.5,65.8333 30.5,65.1667 74.5,64.5 Z"/></g>
<g><path style="opacity:1" fill="#5e4a9e" d="M 35.5,70.5 C 47.5185,70.1677 59.5185,70.501 71.5,71.5C 65.5,71.8333 59.5,72.1667 53.5,72.5C 47.1275,72.496 41.1275,71.8293 35.5,70.5 Z"/></g>
<g><path style="opacity:1" fill="#6c57ad" d="M 20.5,62.5 C 24.5,62.5 28.5,62.5 32.5,62.5C 32.5,66.5 32.5,70.5 32.5,74.5C 28.8183,74.6653 25.1516,74.4986 21.5,74C 20.5399,70.27 20.2065,66.4367 20.5,62.5 Z"/></g>
<g><path style="opacity:1" fill="#9c86df" d="M 22.5,64.5 C 25.1667,64.5 27.8333,64.5 30.5,64.5C 30.5,67.1667 30.5,69.8333 30.5,72.5C 26.2029,71.5363 23.5362,68.8696 22.5,64.5 Z"/></g>
<g><path style="opacity:1" fill="#5e4a9e" d="M 35.5,79.5 C 36.675,79.281 37.675,79.6143 38.5,80.5C 36.9483,81.7979 35.9483,81.4646 35.5,79.5 Z"/></g>
<g><path style="opacity:1" fill="#5e4a9e" d="M 41.5,79.5 C 52.5202,79.1679 63.5202,79.5012 74.5,80.5C 69,80.8333 63.5,81.1667 58,81.5C 52.1238,81.4952 46.6238,80.8286 41.5,79.5 Z"/></g>
<g><path style="opacity:1" fill="#5e4a9e" d="M 35.5,85.5 C 47.5185,85.1677 59.5185,85.501 71.5,86.5C 65.5,86.8333 59.5,87.1667 53.5,87.5C 47.1275,87.496 41.1275,86.8293 35.5,85.5 Z"/></g>
<g><path style="opacity:1" fill="#6c57ad" d="M 20.5,77.5 C 24.5,77.5 28.5,77.5 32.5,77.5C 32.5,81.5 32.5,85.5 32.5,89.5C 28.8183,89.6653 25.1516,89.4986 21.5,89C 20.5399,85.27 20.2065,81.4367 20.5,77.5 Z"/></g>
<g><path style="opacity:1" fill="#9c86df" d="M 22.5,79.5 C 25.1667,79.5 27.8333,79.5 30.5,79.5C 30.5,82.1667 30.5,84.8333 30.5,87.5C 26.2029,86.5363 23.5362,83.8696 22.5,79.5 Z"/></g>
</svg>
