<?xml version="1.0" encoding="UTF-8"?>
<!DOCTYPE svg PUBLIC "-//W3C//DTD SVG 1.1//EN" "http://www.w3.org/Graphics/SVG/1.1/DTD/svg11.dtd">
<svg xmlns="http://www.w3.org/2000/svg" version="1.1" width="128px" height="128px" style="shape-rendering:geometricPrecision; text-rendering:geometricPrecision; image-rendering:optimizeQuality; fill-rule:evenodd; clip-rule:evenodd" xmlns:xlink="http://www.w3.org/1999/xlink">
<g><path style="opacity:0.844" fill="#3a3b3c" d="M 127.5,65.5 C 127.5,67.5 127.5,69.5 127.5,71.5C 126.218,75.3044 123.885,78.471 120.5,81C 115.871,83.8979 111.037,86.3979 106,88.5C 106.891,94.7631 107.224,101.096 107,107.5C 104.481,120.796 96.9814,124.629 84.5,119C 79.6603,116.081 74.9936,112.914 70.5,109.5C 64.0934,115.87 56.4268,119.87 47.5,121.5C 41.8052,121.41 37.9719,118.743 36,113.5C 34.955,109.755 34.455,105.921 34.5,102C 34.865,97.4736 35.0317,92.9736 35,88.5C 29.4641,86.3159 24.2974,83.4825 19.5,80C 12.3785,71.4157 13.0451,63.4157 21.5,56C 26.1082,52.863 31.1082,50.5297 36.5,49C 34.103,40.5687 33.9364,32.0687 36,23.5C 39.6551,16.9298 45.1551,14.7632 52.5,17C 59.4425,19.614 65.6092,23.4473 71,28.5C 78.1912,19.8178 87.3579,15.9845 98.5,17C 103.645,19.4966 106.478,23.6632 107,29.5C 107.625,35.5814 107.125,41.5814 105.5,47.5C 105.833,48.1667 106.167,48.8333 106.5,49.5C 115.921,51.9515 122.921,57.2849 127.5,65.5 Z M 44.5,21.5 C 53.4331,21.9665 60.7664,25.6332 66.5,32.5C 63.3566,36.811 60.0233,40.9776 56.5,45C 51.103,45.5133 45.7696,46.3467 40.5,47.5C 39.5572,40.8558 39.3905,34.1892 40,27.5C 40.8041,24.8541 42.3041,22.8541 44.5,21.5 Z M 89.5,21.5 C 98.6956,20.6946 103.029,25.028 102.5,34.5C 101.939,38.8626 101.273,43.196 100.5,47.5C 95.1637,46.4997 89.8304,45.4997 84.5,44.5C 81.5434,40.2079 78.2101,36.2079 74.5,32.5C 78.9968,28.0911 83.9968,24.4244 89.5,21.5 Z M 69.5,36.5 C 70.2389,36.369 70.9056,36.5357 71.5,37C 73.5,39.3333 75.5,41.6667 77.5,44C 73.1287,44.8275 68.7953,44.6609 64.5,43.5C 66.6049,41.4084 68.2716,39.0751 69.5,36.5 Z M 59.5,49.5 C 66.8409,49.3337 74.1742,49.5003 81.5,50C 85.5444,55.9189 89.2111,62.0855 92.5,68.5C 89.6739,74.8223 86.3405,80.8223 82.5,86.5C 74.903,88.9532 67.2363,89.1199 59.5,87C 55.2598,81.3549 51.9265,75.1882 49.5,68.5C 52.5866,61.9917 55.9199,55.6583 59.5,49.5 Z M 49.5,50.5 C 50.675,50.281 51.675,50.6143 52.5,51.5C 50.3333,55.1667 48.1667,58.8333 46,62.5C 44.8333,59.5 43.6667,56.5 42.5,53.5C 44.7639,52.1308 47.0972,51.1308 49.5,50.5 Z M 88.5,51.5 C 98.46,49.6904 100.627,53.0237 95,61.5C 93.0583,57.9311 90.8916,54.5978 88.5,51.5 Z M 34.5,54.5 C 35.8221,54.33 36.9887,54.6634 38,55.5C 39.6479,59.9598 41.1479,64.4598 42.5,69C 41.0634,73.9756 39.23,78.8089 37,83.5C 14.7933,75.029 13.96,65.3624 34.5,54.5 Z M 103.5,54.5 C 128.467,63.5989 128.634,73.2655 104,83.5C 102.306,78.6116 100.472,73.7782 98.5,69C 100.47,64.2555 102.137,59.4221 103.5,54.5 Z M 45.5,75.5 C 47.934,78.8485 50.2673,82.3485 52.5,86C 48.8976,86.5987 45.5642,85.932 42.5,84C 43.7979,81.2731 44.7979,78.4398 45.5,75.5 Z M 94.5,75.5 C 96.7851,78.335 98.1184,81.6684 98.5,85.5C 95.4116,86.0685 92.4116,86.0685 89.5,85.5C 91.705,82.4234 93.3716,79.0901 94.5,75.5 Z M 99.5,89.5 C 102.384,96.2306 102.884,103.231 101,110.5C 98.3221,116.088 94.1555,117.588 88.5,115C 83.2765,112.443 78.6098,109.109 74.5,105C 77.8333,101 81.1667,97 84.5,93C 89.7289,92.248 94.7289,91.0814 99.5,89.5 Z M 40.5,90.5 C 46.3039,90.7451 51.9706,91.7451 57.5,93.5C 60.3092,97.4767 63.3092,101.31 66.5,105C 61.4266,110.872 55.0933,114.705 47.5,116.5C 43.543,115.709 41.043,113.376 40,109.5C 39.3466,103.138 39.5133,96.805 40.5,90.5 Z M 64.5,94.5 C 68.3507,93.1905 72.3507,93.1905 76.5,94.5C 74.8333,96.8333 72.8333,98.8333 70.5,100.5C 68.1182,98.785 66.1182,96.785 64.5,94.5 Z"/></g>
<g><path style="opacity:0.928" fill="#3a3b3c" d="M 66.5,56.5 C 80.8371,56.3321 85.6704,62.9987 81,76.5C 72.5898,83.6862 65.2565,82.6862 59,73.5C 57.2017,65.7746 59.7017,60.108 66.5,56.5 Z"/></g>
</svg>
