<?xml version="1.0" encoding="UTF-8"?>
<!DOCTYPE svg PUBLIC "-//W3C//DTD SVG 1.1//EN" "http://www.w3.org/Graphics/SVG/1.1/DTD/svg11.dtd">
<svg xmlns="http://www.w3.org/2000/svg" version="1.1" width="128px" height="128px" style="shape-rendering:geometricPrecision; text-rendering:geometricPrecision; image-rendering:optimizeQuality; fill-rule:evenodd; clip-rule:evenodd" xmlns:xlink="http://www.w3.org/1999/xlink">
<g><path style="opacity:0.902" fill="#000000" d="M 39.5,-0.5 C 44.1667,-0.5 48.8333,-0.5 53.5,-0.5C 53.5,1.5 53.5,3.5 53.5,5.5C 50.8333,5.5 48.1667,5.5 45.5,5.5C 45.5,7.16667 45.5,8.83333 45.5,10.5C 48.1667,10.5 50.8333,10.5 53.5,10.5C 53.5,12.8333 53.5,15.1667 53.5,17.5C 48.8333,17.5 44.1667,17.5 39.5,17.5C 39.5,11.5 39.5,5.5 39.5,-0.5 Z"/></g>
<g><path style="opacity:0.858" fill="#000000" d="M 55.5,-0.5 C 60.5,-0.5 65.5,-0.5 70.5,-0.5C 70.5,1.16667 70.5,2.83333 70.5,4.5C 59.8333,4.83333 59.8333,5.16667 70.5,5.5C 70.5,9.5 70.5,13.5 70.5,17.5C 65.5,17.5 60.5,17.5 55.5,17.5C 55.5,11.5 55.5,5.5 55.5,-0.5 Z"/></g>
<g><path style="opacity:0.921" fill="#000000" d="M 72.5,-0.5 C 77.1667,-0.5 81.8333,-0.5 86.5,-0.5C 86.5,1.16667 86.5,2.83333 86.5,4.5C 75.8333,4.83333 75.8333,5.16667 86.5,5.5C 86.5,9.5 86.5,13.5 86.5,17.5C 81.8333,17.5 77.1667,17.5 72.5,17.5C 72.5,11.5 72.5,5.5 72.5,-0.5 Z"/></g>
<g><path style="opacity:0.98" fill="#014ce8" d="M 67.5,127.5 C 64.8333,127.5 62.1667,127.5 59.5,127.5C 48.6586,124.034 37.6586,120.701 26.5,117.5C 23.1994,86.527 20.1994,55.527 17.5,24.5C 48.1667,24.5 78.8333,24.5 109.5,24.5C 106.801,55.527 103.801,86.527 100.5,117.5C 89.3414,120.701 78.3414,124.034 67.5,127.5 Z"/></g>
<g><path style="opacity:1" fill="#0b66f4" d="M 62.5,107.5 C 62.8333,107.5 63.1667,107.5 63.5,107.5C 70.8608,105.715 78.1941,103.715 85.5,101.5C 88.5193,82.2904 90.5193,62.957 91.5,43.5C 82.1667,43.5 72.8333,43.5 63.5,43.5C 63.5,39.8333 63.5,36.1667 63.5,32.5C 75.8333,32.5 88.1667,32.5 100.5,32.5C 97.9869,58.8112 95.6535,85.1445 93.5,111.5C 83.448,113.962 73.448,116.628 63.5,119.5C 63.7633,115.4 63.4299,111.4 62.5,107.5 Z"/></g>
<g><path style="opacity:1" fill="#e8e9ea" d="M 63.5,43.5 C 63.5,47.1667 63.5,50.8333 63.5,54.5C 54.5,54.5 45.5,54.5 36.5,54.5C 35.5184,51.0381 35.185,47.3714 35.5,43.5C 44.8333,43.5 54.1667,43.5 63.5,43.5 Z"/></g>
<g><path style="opacity:1" fill="#fcfdfe" d="M 63.5,43.5 C 72.8333,43.5 82.1667,43.5 91.5,43.5C 90.5193,62.957 88.5193,82.2904 85.5,101.5C 78.1941,103.715 70.8608,105.715 63.5,107.5C 63.2367,103.4 63.5701,99.3998 64.5,95.5C 68.3696,94.5744 72.2029,93.5744 76,92.5C 76.4983,89.1832 76.665,85.8499 76.5,82.5C 77.4511,81.0813 77.7845,79.4147 77.5,77.5C 72.8333,77.5 68.1667,77.5 63.5,77.5C 63.5,73.8333 63.5,70.1667 63.5,66.5C 68.5,66.5 73.5,66.5 78.5,66.5C 78.5,65.5 78.5,64.5 78.5,63.5C 79.4767,60.7131 79.81,57.7131 79.5,54.5C 74.1667,54.5 68.8333,54.5 63.5,54.5C 63.5,50.8333 63.5,47.1667 63.5,43.5 Z"/></g>
<g><path style="opacity:1" fill="#6494ed" d="M 36.5,54.5 C 45.5,54.5 54.5,54.5 63.5,54.5C 68.8333,54.5 74.1667,54.5 79.5,54.5C 79.81,57.7131 79.4767,60.7131 78.5,63.5C 78.5,60.8333 78.5,58.1667 78.5,55.5C 73.5,55.5 68.5,55.5 63.5,55.5C 54.3178,55.8266 45.3178,55.4933 36.5,54.5 Z"/></g>
<g><path style="opacity:1" fill="#0065f4" d="M 63.5,55.5 C 68.5,55.5 73.5,55.5 78.5,55.5C 78.5,58.1667 78.5,60.8333 78.5,63.5C 78.5,64.5 78.5,65.5 78.5,66.5C 73.5,66.5 68.5,66.5 63.5,66.5C 63.5,62.8333 63.5,59.1667 63.5,55.5 Z"/></g>
<g><path style="opacity:1" fill="#e8e9ea" d="M 63.5,66.5 C 63.5,70.1667 63.5,73.8333 63.5,77.5C 55.1667,77.5 46.8333,77.5 38.5,77.5C 37.5184,74.0381 37.185,70.3714 37.5,66.5C 46.1667,66.5 54.8333,66.5 63.5,66.5 Z"/></g>
<g><path style="opacity:1" fill="#6092ed" d="M 38.5,77.5 C 46.8333,77.5 55.1667,77.5 63.5,77.5C 68.1667,77.5 72.8333,77.5 77.5,77.5C 77.7845,79.4147 77.4511,81.0813 76.5,82.5C 76.5,81.1667 76.5,79.8333 76.5,78.5C 72.1667,78.5 67.8333,78.5 63.5,78.5C 54.9832,78.8261 46.6499,78.4927 38.5,77.5 Z"/></g>
<g><path style="opacity:1" fill="#0966f4" d="M 63.5,78.5 C 67.8333,78.5 72.1667,78.5 76.5,78.5C 76.5,79.8333 76.5,81.1667 76.5,82.5C 76.665,85.8499 76.4983,89.1832 76,92.5C 72.2029,93.5744 68.3696,94.5744 64.5,95.5C 64.1667,95.5 63.8333,95.5 63.5,95.5C 63.5,89.8333 63.5,84.1667 63.5,78.5 Z"/></g>
<g><path style="opacity:1" fill="#e3e5eb" d="M 63.5,95.5 C 63.8333,95.5 64.1667,95.5 64.5,95.5C 63.5701,99.3998 63.2367,103.4 63.5,107.5C 63.1667,107.5 62.8333,107.5 62.5,107.5C 55.1085,105.818 47.7752,103.818 40.5,101.5C 39.5028,95.5321 38.8361,89.5321 38.5,83.5C 42.5,83.5 46.5,83.5 50.5,83.5C 50.2161,86.7766 50.5495,89.9433 51.5,93C 55.4728,94.0278 59.4728,94.8611 63.5,95.5 Z"/></g>
</svg>
