<?xml version="1.0" encoding="UTF-8"?>
<!DOCTYPE svg PUBLIC "-//W3C//DTD SVG 1.1//EN" "http://www.w3.org/Graphics/SVG/1.1/DTD/svg11.dtd">
<svg xmlns="http://www.w3.org/2000/svg" version="1.1" width="128px" height="128px" style="shape-rendering:geometricPrecision; text-rendering:geometricPrecision; image-rendering:optimizeQuality; fill-rule:evenodd; clip-rule:evenodd" xmlns:xlink="http://www.w3.org/1999/xlink">
<g><path style="opacity:0.969" fill="#2ed498" d="M 13.5,-0.5 C 16.5,-0.5 19.5,-0.5 22.5,-0.5C 22.5,13.5 22.5,27.5 22.5,41.5C 17.1563,41.666 11.8229,41.4994 6.5,41C 3.7339,39.629 1.40057,37.7957 -0.5,35.5C -0.5,29.5 -0.5,23.5 -0.5,17.5C 2.64294,12.2682 7.30961,10.2682 13.5,11.5C 13.5,7.5 13.5,3.5 13.5,-0.5 Z M 9.5,19.5 C 10.8333,19.5 12.1667,19.5 13.5,19.5C 13.5,24.1667 13.5,28.8333 13.5,33.5C 11.4176,33.528 9.5843,32.8613 8,31.5C 6.99396,27.1985 7.49396,23.1985 9.5,19.5 Z"/></g>
<g><path style="opacity:0.938" fill="#2ed497" d="M 25.5,-0.5 C 28.5,-0.5 31.5,-0.5 34.5,-0.5C 34.5,2.16667 34.5,4.83333 34.5,7.5C 31.5,7.5 28.5,7.5 25.5,7.5C 25.5,4.83333 25.5,2.16667 25.5,-0.5 Z"/></g>
<g><path style="opacity:0.971" fill="#2ed498" d="M 25.5,11.5 C 28.5,11.5 31.5,11.5 34.5,11.5C 34.9122,23.2293 34.4122,34.8959 33,46.5C 29.5675,51.6266 24.7342,53.6266 18.5,52.5C 18.5,49.8333 18.5,47.1667 18.5,44.5C 21.0444,44.8957 23.2111,44.229 25,42.5C 25.4998,32.172 25.6665,21.8387 25.5,11.5 Z"/></g>
<g><path style="opacity:0.946" fill="#2fd398" d="M 39.5,11.5 C 48.8677,9.09058 54.701,12.4239 57,21.5C 57.4996,28.1583 57.6663,34.825 57.5,41.5C 52.4889,41.6659 47.4889,41.4993 42.5,41C 35.5857,37.3238 33.7523,31.8238 37,24.5C 39.7311,21.2879 43.2311,19.7879 47.5,20C 44.854,19.5026 42.1873,19.3359 39.5,19.5C 39.5,16.8333 39.5,14.1667 39.5,11.5 Z M 45.5,28.5 C 46.5,28.5 47.5,28.5 48.5,28.5C 48.9746,34.0533 47.3079,34.8866 43.5,31C 44.3805,30.2917 45.0472,29.4584 45.5,28.5 Z"/></g>
<g><path style="opacity:0.921" fill="#2ed497" d="M 63.5,11.5 C 63.5,21.5 63.5,31.5 63.5,41.5C 62.1667,41.5 60.8333,41.5 59.5,41.5C 59.5,31.5 59.5,21.5 59.5,11.5C 60.8333,11.5 62.1667,11.5 63.5,11.5 Z"/></g>
<g><path style="opacity:0.922" fill="#1b9ead" d="M 63.5,11.5 C 67.1817,11.3347 70.8484,11.5014 74.5,12C 76.286,12.7845 77.786,13.9512 79,15.5C 80.4408,24.0578 80.9408,32.7244 80.5,41.5C 77.8333,41.5 75.1667,41.5 72.5,41.5C 72.6663,34.4921 72.4996,27.4921 72,20.5C 70.6439,19.6198 69.1439,19.2865 67.5,19.5C 67.5,26.8333 67.5,34.1667 67.5,41.5C 66.1667,41.5 64.8333,41.5 63.5,41.5C 63.5,31.5 63.5,21.5 63.5,11.5 Z"/></g>
<g><path style="opacity:0.91" fill="#1c9fad" d="M 88.5,11.5 C 93.8333,11.5 99.1667,11.5 104.5,11.5C 104.667,22.505 104.5,33.505 104,44.5C 103.117,47.1024 101.617,49.2691 99.5,51C 94.5988,52.3254 89.5988,52.8254 84.5,52.5C 84.5,49.8333 84.5,47.1667 84.5,44.5C 87.5184,44.6646 90.5184,44.498 93.5,44C 94.3081,43.6924 94.9747,43.1924 95.5,42.5C 89.2811,42.2721 85.1145,39.2721 83,33.5C 82.3333,28.8333 82.3333,24.1667 83,19.5C 84.104,16.2788 85.9374,13.6122 88.5,11.5 Z M 92.5,19.5 C 93.5,19.5 94.5,19.5 95.5,19.5C 95.8266,24.2137 95.4933,28.8804 94.5,33.5C 93.8333,33.1667 93.1667,32.8333 92.5,32.5C 91.23,28.1186 91.23,23.7853 92.5,19.5 Z"/></g>
<g><path style="opacity:0.927" fill="#1c9fad" d="M 127.5,17.5 C 127.5,23.5 127.5,29.5 127.5,35.5C 122.628,41.8908 116.628,43.0574 109.5,39C 107.024,35.0633 106.024,30.7299 106.5,26C 105.408,14.7574 110.408,10.0907 121.5,12C 124.023,13.3597 126.023,15.193 127.5,17.5 Z M 116.5,19.5 C 117.496,19.4142 118.329,19.7476 119,20.5C 119.667,24.1667 119.667,27.8333 119,31.5C 117.667,32.8333 116.333,32.8333 115,31.5C 113.994,27.1985 114.494,23.1985 116.5,19.5 Z"/></g>
<g><path style="opacity:1" fill="#8175e2" d="M -0.5,62.5 C 7.5,62.5 15.5,62.5 23.5,62.5C 21.1795,63.4185 19.0129,64.7518 17,66.5C 15.9573,70.0552 14.7906,73.5552 13.5,77C 9.11563,79.2078 4.44896,80.0411 -0.5,79.5C -0.5,73.8333 -0.5,68.1667 -0.5,62.5 Z"/></g>
<g><path style="opacity:1" fill="#524a8f" d="M 23.5,62.5 C 26.1667,62.5 28.8333,62.5 31.5,62.5C 33.8205,63.4185 35.9871,64.7518 38,66.5C 38.8832,70.6201 40.3832,74.4534 42.5,78C 49.3846,79.4247 56.3846,79.9247 63.5,79.5C 63.5,83.5 63.5,87.5 63.5,91.5C 65.099,91.2322 66.4324,91.5655 67.5,92.5C 64.8333,92.5 62.1667,92.5 59.5,92.5C 59.5,94.8333 59.5,97.1667 59.5,99.5C 60.8333,99.5 62.1667,99.5 63.5,99.5C 63.5,101.833 63.5,104.167 63.5,106.5C 70.0221,106.177 76.3554,106.51 82.5,107.5C 76.1667,107.5 69.8333,107.5 63.5,107.5C 57.1667,107.5 50.8333,107.5 44.5,107.5C 44.5,109.833 44.5,112.167 44.5,114.5C 50.8333,114.5 57.1667,114.5 63.5,114.5C 63.5,118.833 63.5,123.167 63.5,127.5C 42.1667,127.5 20.8333,127.5 -0.5,127.5C -0.5,111.5 -0.5,95.5 -0.5,79.5C 4.44896,80.0411 9.11563,79.2078 13.5,77C 14.7906,73.5552 15.9573,70.0552 17,66.5C 19.0129,64.7518 21.1795,63.4185 23.5,62.5 Z"/></g>
<g><path style="opacity:1" fill="#8175e2" d="M 31.5,62.5 C 42.1667,62.5 52.8333,62.5 63.5,62.5C 63.5,68.1667 63.5,73.8333 63.5,79.5C 56.3846,79.9247 49.3846,79.4247 42.5,78C 40.3832,74.4534 38.8832,70.6201 38,66.5C 35.9871,64.7518 33.8205,63.4185 31.5,62.5 Z"/></g>
<g><path style="opacity:1" fill="#675db4" d="M 63.5,62.5 C 84.8333,62.5 106.167,62.5 127.5,62.5C 127.5,68.1667 127.5,73.8333 127.5,79.5C 106.167,79.5 84.8333,79.5 63.5,79.5C 63.5,73.8333 63.5,68.1667 63.5,62.5 Z"/></g>
<g><path style="opacity:1" fill="#342c6e" d="M 63.5,79.5 C 84.8333,79.5 106.167,79.5 127.5,79.5C 127.5,95.5 127.5,111.5 127.5,127.5C 106.167,127.5 84.8333,127.5 63.5,127.5C 63.5,123.167 63.5,118.833 63.5,114.5C 69.8333,114.5 76.1667,114.5 82.5,114.5C 82.5,112.167 82.5,109.833 82.5,107.5C 76.3554,106.51 70.0221,106.177 63.5,106.5C 63.5,104.167 63.5,101.833 63.5,99.5C 64.8333,99.5 66.1667,99.5 67.5,99.5C 67.5,97.1667 67.5,94.8333 67.5,92.5C 66.4324,91.5655 65.099,91.2322 63.5,91.5C 63.5,87.5 63.5,83.5 63.5,79.5 Z"/></g>
<g><path style="opacity:1" fill="#a4954c" d="M 14.5,92.5 C 16.9479,91.5269 19.6146,91.1936 22.5,91.5C 22.8064,94.3854 22.4731,97.0521 21.5,99.5C 21.5,97.1667 21.5,94.8333 21.5,92.5C 19.1667,92.5 16.8333,92.5 14.5,92.5 Z"/></g>
<g><path style="opacity:1" fill="#768bc6" d="M 29.5,92.5 C 36.9818,91.508 44.6484,91.1746 52.5,91.5C 52.8064,94.3854 52.4731,97.0521 51.5,99.5C 51.5,97.1667 51.5,94.8333 51.5,92.5C 44.1667,92.5 36.8333,92.5 29.5,92.5 Z"/></g>
<g><path style="opacity:1" fill="#3368b5" d="M 97.5,92.5 C 90.1667,92.5 82.8333,92.5 75.5,92.5C 75.5,94.8333 75.5,97.1667 75.5,99.5C 74.5269,97.0521 74.1936,94.3854 74.5,91.5C 82.3516,91.1746 90.0182,91.508 97.5,92.5 Z"/></g>
<g><path style="opacity:1" fill="#946f3a" d="M 112.5,92.5 C 110.167,92.5 107.833,92.5 105.5,92.5C 105.5,94.8333 105.5,97.1667 105.5,99.5C 104.527,97.0521 104.194,94.3854 104.5,91.5C 107.385,91.1936 110.052,91.5269 112.5,92.5 Z"/></g>
<g><path style="opacity:1" fill="#fde901" d="M 14.5,92.5 C 16.8333,92.5 19.1667,92.5 21.5,92.5C 21.5,94.8333 21.5,97.1667 21.5,99.5C 19.1667,99.5 16.8333,99.5 14.5,99.5C 14.5,97.1667 14.5,94.8333 14.5,92.5 Z"/></g>
<g><path style="opacity:1" fill="#9acefe" d="M 29.5,92.5 C 36.8333,92.5 44.1667,92.5 51.5,92.5C 51.5,94.8333 51.5,97.1667 51.5,99.5C 44.1667,99.5 36.8333,99.5 29.5,99.5C 29.5,97.1667 29.5,94.8333 29.5,92.5 Z"/></g>
<g><path style="opacity:1" fill="#f56599" d="M 67.5,92.5 C 67.5,94.8333 67.5,97.1667 67.5,99.5C 66.1667,99.5 64.8333,99.5 63.5,99.5C 62.1667,99.5 60.8333,99.5 59.5,99.5C 59.5,97.1667 59.5,94.8333 59.5,92.5C 62.1667,92.5 64.8333,92.5 67.5,92.5 Z"/></g>
<g><path style="opacity:1" fill="#32a6fe" d="M 97.5,92.5 C 97.5,94.8333 97.5,97.1667 97.5,99.5C 90.1667,99.5 82.8333,99.5 75.5,99.5C 75.5,97.1667 75.5,94.8333 75.5,92.5C 82.8333,92.5 90.1667,92.5 97.5,92.5 Z"/></g>
<g><path style="opacity:1" fill="#fdb900" d="M 112.5,92.5 C 112.5,94.8333 112.5,97.1667 112.5,99.5C 110.167,99.5 107.833,99.5 105.5,99.5C 105.5,97.1667 105.5,94.8333 105.5,92.5C 107.833,92.5 110.167,92.5 112.5,92.5 Z"/></g>
<g><path style="opacity:1" fill="#a1619b" d="M 14.5,107.5 C 21.9818,106.508 29.6484,106.175 37.5,106.5C 37.8064,109.385 37.4731,112.052 36.5,114.5C 36.5,112.167 36.5,109.833 36.5,107.5C 29.1667,107.5 21.8333,107.5 14.5,107.5 Z"/></g>
<g><path style="opacity:1" fill="#916d3c" d="M 112.5,107.5 C 105.167,107.5 97.8333,107.5 90.5,107.5C 90.5,109.833 90.5,112.167 90.5,114.5C 89.5269,112.052 89.1936,109.385 89.5,106.5C 97.3516,106.175 105.018,106.508 112.5,107.5 Z"/></g>
<g><path style="opacity:1" fill="#fe7eaa" d="M 14.5,107.5 C 21.8333,107.5 29.1667,107.5 36.5,107.5C 36.5,109.833 36.5,112.167 36.5,114.5C 29.1667,114.5 21.8333,114.5 14.5,114.5C 14.5,112.167 14.5,109.833 14.5,107.5 Z"/></g>
<g><path style="opacity:1" fill="#0efd92" d="M 63.5,107.5 C 63.5,109.833 63.5,112.167 63.5,114.5C 57.1667,114.5 50.8333,114.5 44.5,114.5C 44.5,112.167 44.5,109.833 44.5,107.5C 50.8333,107.5 57.1667,107.5 63.5,107.5 Z"/></g>
<g><path style="opacity:1" fill="#2fd297" d="M 63.5,107.5 C 69.8333,107.5 76.1667,107.5 82.5,107.5C 82.5,109.833 82.5,112.167 82.5,114.5C 76.1667,114.5 69.8333,114.5 63.5,114.5C 63.5,112.167 63.5,109.833 63.5,107.5 Z"/></g>
<g><path style="opacity:1" fill="#feba00" d="M 112.5,107.5 C 112.5,109.833 112.5,112.167 112.5,114.5C 105.167,114.5 97.8333,114.5 90.5,114.5C 90.5,112.167 90.5,109.833 90.5,107.5C 97.8333,107.5 105.167,107.5 112.5,107.5 Z"/></g>
</svg>
