<?xml version="1.0" encoding="UTF-8"?>
<!DOCTYPE svg PUBLIC "-//W3C//DTD SVG 1.1//EN" "http://www.w3.org/Graphics/SVG/1.1/DTD/svg11.dtd">
<svg xmlns="http://www.w3.org/2000/svg" version="1.1" width="128px" height="128px" style="shape-rendering:geometricPrecision; text-rendering:geometricPrecision; image-rendering:optimizeQuality; fill-rule:evenodd; clip-rule:evenodd" xmlns:xlink="http://www.w3.org/1999/xlink">
<g><path style="opacity:0.916" fill="#000000" d="M 26.5,-0.5 C 28.5,-0.5 30.5,-0.5 32.5,-0.5C 32.5,1.16667 32.5,2.83333 32.5,4.5C 34.1667,4.5 35.8333,4.5 37.5,4.5C 37.5,2.83333 37.5,1.16667 37.5,-0.5C 39.5,-0.5 41.5,-0.5 43.5,-0.5C 43.5,5.5 43.5,11.5 43.5,17.5C 41.5,17.5 39.5,17.5 37.5,17.5C 37.5,15.5 37.5,13.5 37.5,11.5C 35.8333,11.5 34.1667,11.5 32.5,11.5C 32.5,13.5 32.5,15.5 32.5,17.5C 30.5,17.5 28.5,17.5 26.5,17.5C 26.5,11.5 26.5,5.5 26.5,-0.5 Z"/></g>
<g><path style="opacity:0.848" fill="#000000" d="M 45.5,-0.5 C 51.1667,-0.5 56.8333,-0.5 62.5,-0.5C 62.5,1.5 62.5,3.5 62.5,5.5C 60.8333,5.5 59.1667,5.5 57.5,5.5C 57.5,9.5 57.5,13.5 57.5,17.5C 55.1667,17.5 52.8333,17.5 50.5,17.5C 50.5,13.5 50.5,9.5 50.5,5.5C 48.8333,5.5 47.1667,5.5 45.5,5.5C 45.5,3.5 45.5,1.5 45.5,-0.5 Z"/></g>
<g><path style="opacity:0.814" fill="#000000" d="M 63.5,-0.5 C 66.1667,-0.5 68.8333,-0.5 71.5,-0.5C 72.3201,1.14011 73.1534,2.80678 74,4.5C 75.0945,2.92209 75.9278,1.25542 76.5,-0.5C 79.1667,-0.5 81.8333,-0.5 84.5,-0.5C 84.5,5.5 84.5,11.5 84.5,17.5C 82.1667,17.5 79.8333,17.5 77.5,17.5C 77.6621,15.4727 77.4955,13.4727 77,11.5C 74.6476,15.3626 72.6476,15.0293 71,10.5C 70.5034,12.8098 70.3367,15.1432 70.5,17.5C 68.1667,17.5 65.8333,17.5 63.5,17.5C 63.5,11.5 63.5,5.5 63.5,-0.5 Z"/></g>
<g><path style="opacity:0.854" fill="#000000" d="M 86.5,-0.5 C 88.5,-0.5 90.5,-0.5 92.5,-0.5C 92.5,3.16667 92.5,6.83333 92.5,10.5C 95.5,10.5 98.5,10.5 101.5,10.5C 101.5,12.8333 101.5,15.1667 101.5,17.5C 96.5,17.5 91.5,17.5 86.5,17.5C 86.5,11.5 86.5,5.5 86.5,-0.5 Z"/></g>
<g><path style="opacity:0.971" fill="#fe4c1e" d="M 67.5,127.5 C 64.8333,127.5 62.1667,127.5 59.5,127.5C 48.6586,124.034 37.6586,120.701 26.5,117.5C 23.1994,86.527 20.1994,55.527 17.5,24.5C 48.1667,24.5 78.8333,24.5 109.5,24.5C 106.801,55.527 103.801,86.527 100.5,117.5C 89.3414,120.701 78.3414,124.034 67.5,127.5 Z"/></g>
<g><path style="opacity:1" fill="#ff6722" d="M 62.5,107.5 C 62.8333,107.5 63.1667,107.5 63.5,107.5C 71.0249,105.603 78.5249,103.603 86,101.5C 87.7967,89.9034 88.9634,78.2367 89.5,66.5C 80.8333,66.5 72.1667,66.5 63.5,66.5C 63.5,62.8333 63.5,59.1667 63.5,55.5C 58.1667,55.5 52.8333,55.5 47.5,55.5C 52.6405,54.5119 57.9738,54.1786 63.5,54.5C 72.8333,54.5 82.1667,54.5 91.5,54.5C 91.5,50.8333 91.5,47.1667 91.5,43.5C 82.1667,43.5 72.8333,43.5 63.5,43.5C 63.5,39.8333 63.5,36.1667 63.5,32.5C 75.8333,32.5 88.1667,32.5 100.5,32.5C 98.2949,58.884 95.6283,85.2173 92.5,111.5C 82.7855,114.012 73.1189,116.678 63.5,119.5C 63.7633,115.4 63.4299,111.4 62.5,107.5 Z"/></g>
<g><path style="opacity:1" fill="#ebe9e8" d="M 63.5,43.5 C 63.5,47.1667 63.5,50.8333 63.5,54.5C 57.9738,54.1786 52.6405,54.5119 47.5,55.5C 47.9422,59.1545 48.2756,62.8212 48.5,66.5C 53.5,66.5 58.5,66.5 63.5,66.5C 63.5,70.1667 63.5,73.8333 63.5,77.5C 55.1667,77.5 46.8333,77.5 38.5,77.5C 36.9123,66.3642 35.9123,55.0308 35.5,43.5C 44.8333,43.5 54.1667,43.5 63.5,43.5 Z"/></g>
<g><path style="opacity:1" fill="#fffdfc" d="M 63.5,43.5 C 72.8333,43.5 82.1667,43.5 91.5,43.5C 91.5,47.1667 91.5,50.8333 91.5,54.5C 82.1667,54.5 72.8333,54.5 63.5,54.5C 63.5,50.8333 63.5,47.1667 63.5,43.5 Z"/></g>
<g><path style="opacity:1" fill="#fe4d1f" d="M 47.5,55.5 C 52.8333,55.5 58.1667,55.5 63.5,55.5C 63.5,59.1667 63.5,62.8333 63.5,66.5C 58.5,66.5 53.5,66.5 48.5,66.5C 48.2756,62.8212 47.9422,59.1545 47.5,55.5 Z"/></g>
<g><path style="opacity:1" fill="#fffcfb" d="M 63.5,66.5 C 72.1667,66.5 80.8333,66.5 89.5,66.5C 88.9634,78.2367 87.7967,89.9034 86,101.5C 78.5249,103.603 71.0249,105.603 63.5,107.5C 63.2367,103.4 63.5701,99.3998 64.5,95.5C 68.3696,94.5744 72.2029,93.5744 76,92.5C 76.4983,89.1832 76.665,85.8499 76.5,82.5C 77.4511,81.0813 77.7845,79.4147 77.5,77.5C 72.8333,77.5 68.1667,77.5 63.5,77.5C 63.5,73.8333 63.5,70.1667 63.5,66.5 Z"/></g>
<g><path style="opacity:1" fill="#fc9973" d="M 38.5,77.5 C 46.8333,77.5 55.1667,77.5 63.5,77.5C 68.1667,77.5 72.8333,77.5 77.5,77.5C 77.7845,79.4147 77.4511,81.0813 76.5,82.5C 76.5,81.1667 76.5,79.8333 76.5,78.5C 72.1667,78.5 67.8333,78.5 63.5,78.5C 54.9832,78.8261 46.6499,78.4927 38.5,77.5 Z"/></g>
<g><path style="opacity:1" fill="#ff6620" d="M 63.5,78.5 C 67.8333,78.5 72.1667,78.5 76.5,78.5C 76.5,79.8333 76.5,81.1667 76.5,82.5C 76.665,85.8499 76.4983,89.1832 76,92.5C 72.2029,93.5744 68.3696,94.5744 64.5,95.5C 64.1667,95.5 63.8333,95.5 63.5,95.5C 63.5,89.8333 63.5,84.1667 63.5,78.5 Z"/></g>
<g><path style="opacity:1" fill="#ece5e3" d="M 63.5,95.5 C 63.8333,95.5 64.1667,95.5 64.5,95.5C 63.5701,99.3998 63.2367,103.4 63.5,107.5C 63.1667,107.5 62.8333,107.5 62.5,107.5C 55.0923,105.815 47.759,103.815 40.5,101.5C 39.5028,95.5321 38.8361,89.5321 38.5,83.5C 42.5,83.5 46.5,83.5 50.5,83.5C 50.2161,86.7766 50.5495,89.9433 51.5,93C 55.4728,94.0278 59.4728,94.8611 63.5,95.5 Z"/></g>
</svg>
