<?xml version="1.0" encoding="UTF-8"?>
<!DOCTYPE svg PUBLIC "-//W3C//DTD SVG 1.1//EN" "http://www.w3.org/Graphics/SVG/1.1/DTD/svg11.dtd">
<svg xmlns="http://www.w3.org/2000/svg" version="1.1" width="128px" height="128px" style="shape-rendering:geometricPrecision; text-rendering:geometricPrecision; image-rendering:optimizeQuality; fill-rule:evenodd; clip-rule:evenodd" xmlns:xlink="http://www.w3.org/1999/xlink">
<g><path style="opacity:1" fill="#fdde00" d="M -0.5,-0.5 C 42.1667,-0.5 84.8333,-0.5 127.5,-0.5C 127.5,42.1667 127.5,84.8333 127.5,127.5C 84.8333,127.5 42.1667,127.5 -0.5,127.5C -0.5,84.8333 -0.5,42.1667 -0.5,-0.5 Z"/></g>
<g><path style="opacity:1" fill="#0a0800" d="M 57.5,58.5 C 61.5,58.5 65.5,58.5 69.5,58.5C 69.6666,73.837 69.4999,89.1703 69,104.5C 64.916,115.297 57.0827,119.463 45.5,117C 40.2817,115.114 36.2817,111.781 33.5,107C 36.5,104.833 39.5,102.667 42.5,100.5C 44.4164,103.933 47.2497,105.933 51,106.5C 54.0603,106.775 56.0603,105.442 57,102.5C 57.4999,87.8371 57.6666,73.1705 57.5,58.5 Z"/></g>
<g><path style="opacity:1" fill="#070500" d="M 91.5,57.5 C 100.694,56.2825 108.028,59.2825 113.5,66.5C 111.126,69.1078 108.293,71.1078 105,72.5C 101.175,68.1919 96.8412,67.5253 92,70.5C 91.3333,72.5 91.3333,74.5 92,76.5C 98.7525,80.46 105.586,84.2934 112.5,88C 121.645,102.033 118.312,111.7 102.5,117C 91.3267,118.951 82.66,115.284 76.5,106C 78.9683,103.498 81.8016,101.331 85,99.5C 90.5186,107.07 97.1852,108.404 105,103.5C 105.839,100.86 105.339,98.5271 103.5,96.5C 97.3734,93.603 91.3734,90.4363 85.5,87C 77.6389,78.2848 77.6389,69.6181 85.5,61C 87.7274,60.059 89.7274,58.8923 91.5,57.5 Z"/></g>
</svg>
