<?xml version="1.0" encoding="UTF-8"?>
<!DOCTYPE svg PUBLIC "-//W3C//DTD SVG 1.1//EN" "http://www.w3.org/Graphics/SVG/1.1/DTD/svg11.dtd">
<svg xmlns="http://www.w3.org/2000/svg" version="1.1" width="128px" height="128px" style="shape-rendering:geometricPrecision; text-rendering:geometricPrecision; image-rendering:optimizeQuality; fill-rule:evenodd; clip-rule:evenodd" xmlns:xlink="http://www.w3.org/1999/xlink">
<g><path style="opacity:0.988" fill="#78dfe9" d="M 48.5,-0.5 C 53.5,-0.5 58.5,-0.5 63.5,-0.5C 63.5,20.8333 63.5,42.1667 63.5,63.5C 55.7208,63.0679 48.0542,63.5679 40.5,65C 38.9512,66.214 37.7845,67.714 37,69.5C 36.8288,77.0115 36.3288,84.3448 35.5,91.5C 27.0826,91.9057 18.7492,91.4057 10.5,90C 5.22618,87.5627 1.55952,83.7294 -0.5,78.5C -0.5,68.5 -0.5,58.5 -0.5,48.5C 2.05332,42.1204 6.71998,37.9538 13.5,36C 28.8333,35.6667 44.1667,35.3333 59.5,35C 62.3264,32.4781 61.9931,30.4781 58.5,29C 50.8406,28.5003 43.1739,28.3336 35.5,28.5C 35.1392,22.4067 35.6392,16.4067 37,10.5C 39.4373,5.22618 43.2706,1.55952 48.5,-0.5 Z"/></g>
<g><path style="opacity:1" fill="#3eccdc" d="M 63.5,-0.5 C 68.5,-0.5 73.5,-0.5 78.5,-0.5C 83.7294,1.55952 87.5627,5.22618 90,10.5C 91.4057,18.7492 91.9057,27.0826 91.5,35.5C 96.4764,59.1903 87.143,68.5237 63.5,63.5C 63.5,42.1667 63.5,20.8333 63.5,-0.5 Z"/></g>
<g><path style="opacity:1" fill="#5b6074" d="M 52.5,11.5 C 58.5548,10.9421 59.8881,13.1088 56.5,18C 51.5705,18.427 50.2372,16.2604 52.5,11.5 Z"/></g>
<g><path style="opacity:1" fill="#fddc02" d="M 91.5,35.5 C 99.9174,35.0943 108.251,35.5943 116.5,37C 121.774,39.4373 125.44,43.2706 127.5,48.5C 127.5,58.5 127.5,68.5 127.5,78.5C 124.947,84.8796 120.28,89.0462 113.5,91C 97.789,91.1818 82.1223,91.6818 66.5,92.5C 64.9496,95.1293 65.6162,96.9626 68.5,98C 76.1594,98.4997 83.8261,98.6664 91.5,98.5C 91.8608,104.593 91.3608,110.593 90,116.5C 87.5627,121.774 83.7294,125.44 78.5,127.5C 73.5,127.5 68.5,127.5 63.5,127.5C 63.5,106.167 63.5,84.8333 63.5,63.5C 87.143,68.5237 96.4764,59.1903 91.5,35.5 Z"/></g>
<g><path style="opacity:0.988" fill="#fdee55" d="M 63.5,63.5 C 63.5,84.8333 63.5,106.167 63.5,127.5C 58.5,127.5 53.5,127.5 48.5,127.5C 43.2706,125.44 39.4373,121.774 37,116.5C 35.5943,108.251 35.0943,99.9174 35.5,91.5C 36.3288,84.3448 36.8288,77.0115 37,69.5C 37.7845,67.714 38.9512,66.214 40.5,65C 48.0542,63.5679 55.7208,63.0679 63.5,63.5 Z"/></g>
<g><path style="opacity:1" fill="#494858" d="M 70.5,108.5 C 74.9764,108.8 76.3097,110.967 74.5,115C 68.7377,115.418 67.4044,113.251 70.5,108.5 Z"/></g>
</svg>
