<?xml version="1.0" encoding="UTF-8"?>
<!DOCTYPE svg PUBLIC "-//W3C//DTD SVG 1.1//EN" "http://www.w3.org/Graphics/SVG/1.1/DTD/svg11.dtd">
<svg xmlns="http://www.w3.org/2000/svg" version="1.1" width="128px" height="128px" style="shape-rendering:geometricPrecision; text-rendering:geometricPrecision; image-rendering:optimizeQuality; fill-rule:evenodd; clip-rule:evenodd" xmlns:xlink="http://www.w3.org/1999/xlink">
<g><path style="opacity:0.969" fill="#38393a" d="M 28.5,-0.5 C 40.5,-0.5 52.5,-0.5 64.5,-0.5C 71.4912,0.832638 78.4912,2.66597 85.5,5C 88.5616,6.06075 91.0616,7.89408 93,10.5C 93.4999,29.4971 93.6666,48.4971 93.5,67.5C 96.8499,67.335 100.183,67.5017 103.5,68C 104.056,68.3826 104.389,68.8826 104.5,69.5C 103.733,70.172 103.066,71.0053 102.5,72C 83.8363,72.4999 65.1696,72.6666 46.5,72.5C 46.1749,89.4105 46.5082,106.244 47.5,123C 72.5,123.667 97.5,123.667 122.5,123C 123.658,106.574 123.824,90.0741 123,73.5C 118.586,72.6971 114.086,72.1971 109.5,72C 108.934,71.0053 108.267,70.172 107.5,69.5C 107.611,68.8826 107.944,68.3826 108.5,68C 113.833,67.3333 119.167,67.3333 124.5,68C 125.373,69.045 126.373,69.8783 127.5,70.5C 127.5,88.5 127.5,106.5 127.5,124.5C 126.5,125.5 125.5,126.5 124.5,127.5C 97.8333,127.5 71.1667,127.5 44.5,127.5C 43.4955,126.317 42.6622,124.984 42,123.5C 41.501,119.179 41.3343,114.846 41.5,110.5C 29.043,110.777 17.043,108.61 5.5,104C 3.34004,102.668 1.34004,101.168 -0.5,99.5C -0.5,69.8333 -0.5,40.1667 -0.5,10.5C 1.73606,8.10669 4.40273,6.27336 7.5,5C 14.4647,2.51778 21.4647,0.68445 28.5,-0.5 Z"/></g>
<g><path style="opacity:1" fill="#5561ac" d="M 33.5,3.5 C 46.5785,3.13382 59.5785,3.96715 72.5,6C 77.2316,7.46622 81.8982,9.13289 86.5,11C 88.6015,12.7328 88.9348,14.7328 87.5,17C 80.2615,20.7265 72.5949,23.0598 64.5,24C 49.7925,24.8936 35.1258,24.5603 20.5,23C 15.6165,21.9278 10.9499,20.2612 6.5,18C 4.67075,16.8867 3.83742,15.3867 4,13.5C 5.73092,11.3834 7.89759,9.88343 10.5,9C 18.1348,6.44484 25.8015,4.6115 33.5,3.5 Z"/></g>
<g><path style="opacity:1" fill="#3b4267" d="M 87.5,22.5 C 87.56,21.9569 87.8933,21.6236 88.5,21.5C 89.8194,28.9898 89.8194,36.3231 88.5,43.5C 88.8245,36.3134 88.4912,29.3134 87.5,22.5 Z"/></g>
<g><path style="opacity:1" fill="#3c4a87" d="M 87.5,22.5 C 88.4912,29.3134 88.8245,36.3134 88.5,43.5C 84.4387,46.7004 79.772,48.8671 74.5,50C 57.5602,52.9057 40.5602,53.239 23.5,51C 16.282,50.2624 9.78201,47.7624 4,43.5C 3.16872,36.144 3.33539,28.8107 4.5,21.5C 17.4774,27.4953 31.1441,30.162 45.5,29.5C 59.9451,29.5803 73.9451,27.2469 87.5,22.5 Z"/></g>
<g><path style="opacity:1" fill="#4a517f" d="M 88.5,67.5 C 89.1167,61.4018 88.45,55.7351 86.5,50.5C 87.172,49.7326 88.0053,49.0659 89,48.5C 89.82,55.0137 89.6533,61.3471 88.5,67.5 Z"/></g>
<g><path style="opacity:1" fill="#5562ac" d="M 86.5,50.5 C 88.45,55.7351 89.1167,61.4018 88.5,67.5C 74.496,67.3334 60.496,67.5001 46.5,68C 44.6667,68.5 43.5,69.6667 43,71.5C 42.502,74.4816 42.3354,77.4816 42.5,80.5C 28.9882,81.1657 16.3216,78.3324 4.5,72C 3.18702,64.5579 3.18702,57.0579 4.5,49.5C 31.6694,59.8211 59.0028,60.1544 86.5,50.5 Z"/></g>
<g><path style="opacity:1" fill="#a7c3c4" d="M 104.5,69.5 C 105.5,69.5 106.5,69.5 107.5,69.5C 108.267,70.172 108.934,71.0053 109.5,72C 114.086,72.1971 118.586,72.6971 123,73.5C 123.824,90.0741 123.658,106.574 122.5,123C 97.5,123.667 72.5,123.667 47.5,123C 46.5082,106.244 46.1749,89.4105 46.5,72.5C 65.1696,72.6666 83.8363,72.4999 102.5,72C 103.066,71.0053 103.733,70.172 104.5,69.5 Z"/></g>
<g><path style="opacity:1" fill="#3c4a87" d="M 39.5,84.5 C 41.4047,91.2192 42.0713,98.2192 41.5,105.5C 38.8333,105.5 36.1667,105.5 33.5,105.5C 24.0043,105.376 15.0043,103.209 6.5,99C 5.66667,98.1667 4.83333,97.3333 4,96.5C 3.33333,89.8333 3.33333,83.1667 4,76.5C 15.0688,82.3914 26.9022,85.058 39.5,84.5 Z"/></g>
<g><path style="opacity:1" fill="#3c3d3d" d="M 60.5,82.5 C 68.4783,81.9716 72.145,85.6383 71.5,93.5C 70.1779,93.67 69.0113,93.3366 68,92.5C 67.6011,87.8166 65.1011,86.3166 60.5,88C 59.0183,90.5918 59.3517,92.9251 61.5,95C 71.9715,96.7378 74.3048,102.071 68.5,111C 60.1971,114.184 55.8637,111.35 55.5,102.5C 56.8333,102.5 58.1667,102.5 59.5,102.5C 59.664,108.488 62.164,109.821 67,106.5C 67.9667,100.799 65.4667,98.2987 59.5,99C 55.7235,96.0453 54.5568,92.212 56,87.5C 57.1932,85.5029 58.6932,83.8362 60.5,82.5 Z"/></g>
<g><path style="opacity:1" fill="#3b3c3c" d="M 82.5,82.5 C 87.4206,82.0429 90.9206,84.0429 93,88.5C 93.3396,95.9226 93.5063,103.256 93.5,110.5C 93.1131,111.72 92.2798,112.387 91,112.5C 87.9243,112.244 84.7576,112.077 81.5,112C 79.3333,111.167 77.8333,109.667 77,107.5C 76.3333,100.833 76.3333,94.1667 77,87.5C 78.7297,85.5981 80.563,83.9314 82.5,82.5 Z"/></g>
<g><path style="opacity:1" fill="#3a3b3b" d="M 98.5,82.5 C 99.4959,82.4142 100.329,82.7476 101,83.5C 101.5,91.8267 101.666,100.16 101.5,108.5C 105.833,108.5 110.167,108.5 114.5,108.5C 114.67,109.822 114.337,110.989 113.5,112C 108.249,112.804 103.082,112.637 98,111.5C 97.1943,101.756 97.361,92.0893 98.5,82.5 Z"/></g>
<g><path style="opacity:1" fill="#3a4267" d="M 39.5,84.5 C 40.5,84.5 41.5,84.5 42.5,84.5C 42.5,91.8333 42.5,99.1667 42.5,106.5C 39.2869,106.81 36.2869,106.477 33.5,105.5C 36.1667,105.5 38.8333,105.5 41.5,105.5C 42.0713,98.2192 41.4047,91.2192 39.5,84.5 Z"/></g>
<g><path style="opacity:1" fill="#a6c2c3" d="M 88.5,89.5 C 89.0265,94.807 88.3598,99.807 86.5,104.5C 85.5655,105.568 85.2322,106.901 85.5,108.5C 83.0885,108.863 81.5885,107.863 81,105.5C 80.3333,100.167 80.3333,94.8333 81,89.5C 81.8388,88.3759 83.0055,87.7092 84.5,87.5C 86.3545,87.3402 87.6879,88.0069 88.5,89.5 Z"/></g>
<g><path style="opacity:1" fill="#7c8d8e" d="M 88.5,89.5 C 89.4872,94.3054 89.8205,99.3054 89.5,104.5C 88.5,104.5 87.5,104.5 86.5,104.5C 88.3598,99.807 89.0265,94.807 88.5,89.5 Z"/></g>
</svg>
